# xmcd
#
# Track frame offsets:
#	150
#	17355
#	36707
#	53625
#	71272
#	90455
#	109629
#	125662
#	142085
#	159652
#	180217
#	196852
#	215250
#
# Disc length: 2981 seconds
#
# Revision: 3
# Processed by: cddbd v1.5.2PL0 Copyright (c) Steve Scherf et al.
# Submitted via: audiograbber 1.83.01
#
DISCID=aa0ba30d
DTITLE=Michel Delpech - Cadeau de Noel
DYEAR=1999
DGENRE=Variété Française
TTITLE0=Jeanne la louve
TTITLE1=Et je ris en ce mirroir
TTITLE2=Cadeau de Noel
TTITLE3=Il faut que j'aime
TTITLE4=Les lignes ennemies
TTITLE5=Le papa de Jennifer
TTITLE6=Les petites tortues noires
TTITLE7=Attention elle est blessée
TTITLE8=Derriere les thuyas
TTITLE9=Gaspi le manifique
TTITLE10=Ma vie est ici
TTITLE11=Freres humains
TTITLE12=89 Francs boisson comprise
EXTD=YEAR: 1999
EXTT0=
EXTT1=
EXTT2=
EXTT3=
EXTT4=
EXTT5=
EXTT6=
EXTT7=
EXTT8=
EXTT9=
EXTT10=
EXTT11=
EXTT12=
PLAYORDER=
